<?xml version="1.0" encoding="UTF-8" standalone="no"?>
<!-- Creator: CorelDRAW 2017 -->

<svg
   xmlns:dc="http://purl.org/dc/elements/1.1/"
   xmlns:cc="http://creativecommons.org/ns#"
   xmlns:rdf="http://www.w3.org/1999/02/22-rdf-syntax-ns#"
   xmlns:svg="http://www.w3.org/2000/svg"
   xmlns="http://www.w3.org/2000/svg"
   xmlns:sodipodi="http://sodipodi.sourceforge.net/DTD/sodipodi-0.dtd"
   xmlns:inkscape="http://www.inkscape.org/namespaces/inkscape"
   xml:space="preserve"
   width="189.50142mm"
   height="250.02983mm"
   version="1.1"
   style="clip-rule:evenodd;fill-rule:evenodd;image-rendering:optimizeQuality;shape-rendering:geometricPrecision;text-rendering:geometricPrecision"
   viewBox="0 0 12448 16419.383"
   id="svg96"
   sodipodi:docname="Roboliga2019-logo-monitor.svg"
   inkscape:version="0.92.2 2405546, 2018-03-11"><metadata
   id="metadata100"><rdf:RDF><cc:Work
       rdf:about=""><dc:format>image/svg+xml</dc:format><dc:type
         rdf:resource="http://purl.org/dc/dcmitype/StillImage" /><dc:title></dc:title></cc:Work></rdf:RDF></metadata><sodipodi:namedview
   pagecolor="#ffffff"
   bordercolor="#666666"
   borderopacity="1"
   objecttolerance="10"
   gridtolerance="10"
   guidetolerance="10"
   inkscape:pageopacity="0"
   inkscape:pageshadow="2"
   inkscape:window-width="3840"
   inkscape:window-height="2053"
   id="namedview98"
   showgrid="false"
   inkscape:zoom="0.94703206"
   inkscape:cx="458.28182"
   inkscape:cy="438.78979"
   inkscape:window-x="0"
   inkscape:window-y="0"
   inkscape:window-maximized="1"
   inkscape:current-layer="svg96"
   fit-margin-top="0"
   fit-margin-left="0"
   fit-margin-right="0"
   fit-margin-bottom="0" />
 <defs
   id="defs85">
  <style
   type="text/css"
   id="style83">
   <![CDATA[
    .fil0 {fill:green}
    .fil1 {fill:green;fill-rule:nonzero}
   ]]>
  </style>
 </defs>
 <g
   id="Layer_x0020_1"
   transform="matrix(8,0,0,-8,0,16437.114)"
   style="fill:#008000;fill-opacity:0.42105263">
  <metadata
   id="CorelCorpID_0Corel-Layer" />
  <g
   id="_2228059251472"
   style="fill:#008000;fill-opacity:0.42105263">
   <path
   class="fil0"
   d="m 775,268 c 272,0 511,143 644,358 l -94,92 c -7,-1 -13,-2 -20,-2 -7,1 -12,4 -18,6 l -78,-61 c -17,-13 -41,-10 -54,6 l -123,99 c -7,8 -9,19 -8,29 1,10 6,19 15,26 17,13 41,10 54,-6 l 99,-68 47,37 c -1,6 -2,13 -2,19 3,28 22,50 46,60 l 6,50 -92,64 c -20,13 -39,38 -30,56 10,18 29,17 50,15 l 119,-63 c 21,-3 36,-22 34,-43 l -11,-89 c 13,-10 23,-22 28,-38 l 100,-46 c 29,80 45,167 45,257 0,419 -340,758 -758,758 C 355,1784 16,1444 16,1026 16,934 32,846 62,765 l 47,20 c 5,15 15,28 28,38 l -11,89 c -3,21 13,40 34,43 l 154,18 c 21,3 40,-13 43,-34 3,-21 -13,-40 -34,-43 l -115,-14 6,-50 c 24,-11 43,-32 46,-60 1,-7 -1,-13 -2,-19 l 47,-37 78,99 c 13,17 38,20 54,6 8,-7 13,-16 15,-26 1,-10 -1,-20 -8,-29 L 343,637 c -13,-17 -38,-20 -54,-6 l -78,61 c -6,-2 -12,-5 -18,-6 -7,-1 -13,1 -20,2 L 123,640 C 255,418 498,268 775,268 Z M 549,1655 h 93 v -26 h -53 c 9,-11 15,-18 29,-34 22,-27 24,-33 24,-55 v -6 c 0,-25 -13,-38 -50,-38 -17,0 -33,3 -44,6 l 4,25 c 12,-3 27,-5 38,-5 18,0 22,3 22,15 v 4 c 0,16 -4,20 -26,46 -17,19 -19,22 -37,42 v 25 z m 230,-115 c 0,-24 -13,-43 -52,-43 -39,0 -52,19 -52,43 v 74 c 0,24 13,43 52,43 39,0 52,-19 52,-43 z m -75,3 c 0,-14 4,-20 23,-20 19,0 23,6 23,20 v 68 c 0,14 -4,20 -23,20 -19,0 -23,-6 -23,-20 z m 135,-11 v 123 h 29 v -156 h -27 l -44,26 12,23 29,-16 z m 133,71 c 0,22 -9,29 -40,29 -5,0 -15,-1 -22,-2 l -3,25 c 7,2 19,3 28,3 44,0 67,-14 67,-56 v -59 c 0,-28 -8,-46 -50,-46 -37,0 -49,17 -49,44 v 12 c 0,28 12,40 41,40 10,0 20,-1 29,-4 v 15 z m -24,-36 c -11,0 -16,-4 -16,-15 v -12 c 0,-12 5,-18 20,-18 15,0 20,4 20,18 v 22 c -7,3 -15,5 -24,5 z M 771,941 759,938 c -26,-6 -52,-10 -78,-10 -77,0 -145,51 -167,124 -23,79 14,195 63,259 12,16 24,31 38,44 24,24 56,37 90,37 h 1 c 10,0 21,-1 31,-4 l 43,-11 43,11 c 10,3 20,4 31,4 34,0 67,-13 90,-37 l 1,-1 c 34,-34 61,-74 79,-118 29,-67 29,-208 -28,-261 -33,-30 -74,-47 -119,-47 -26,0 -53,3 -78,10 l -12,3 v -5 c 0,-41 23,-78 60,-97 l -7,-14 c -25,13 -44,33 -56,56 -26,-36 -67,-57 -111,-57 -15,0 -30,3 -45,8 l -11,3 6,8 c 26,38 68,60 113,60 13,0 27,-2 40,-6 -4,12 -6,25 -6,38 v 5 h 1 z m 538,-187 c 22,-3 43,13 46,36 3,22 -13,43 -36,46 -22,3 -43,-13 -46,-36 -3,-22 13,-43 36,-46 z M 189,723 c -22,-3 -43,13 -46,36 -3,22 13,43 36,46 22,3 43,-13 46,-36 3,-22 -13,-43 -36,-46 z"
   id="path88"
   inkscape:connector-curvature="0"
   style="fill:#008000;fill-opacity:0.42105263" />
   <path
   class="fil1"
   d="m 208,367 -69,-11 c 7,-16 3,-31 -11,-44 L 113,297 C 93,277 72,277 46,304 l -46,47 116,111 21,-22 -38,-37 20,-21 64,10 25,-26 z m -115,-46 11,11 c 10,9 10,17 -1,29 L 79,386 40,348 64,323 c 11,-12 19,-12 29,-3 z M 254,196 c -16,-22 -41,-31 -78,-4 -37,27 -36,54 -20,76 l 39,54 c 16,22 41,31 78,4 37,-27 36,-54 20,-76 z m -73,55 c -9,-12 -8,-24 10,-38 18,-13 30,-10 39,2 l 37,51 c 9,12 8,24 -10,38 -18,13 -30,10 -39,-2 z m 229,-8 c 26,-13 33,-32 23,-53 l -8,-15 c -7,-14 -20,-20 -34,-16 9,-10 10,-19 4,-31 l -7,-15 C 378,94 362,88 335,102 l -56,28 72,143 60,-30 z m -6,-42 c 5,11 2,17 -10,23 l -28,14 -20,-39 30,-15 c 11,-5 17,-3 22,7 l 5,11 z m -35,-58 c 4,8 3,15 -8,21 l -26,13 -19,-38 26,-13 c 10,-5 16,-4 20,4 l 6,13 z M 557,71 C 550,45 529,28 485,40 441,52 433,78 440,104 l 18,64 c 7,26 28,43 72,31 44,-12 52,-38 45,-64 z m -87,26 c -4,-15 1,-26 23,-32 22,-6 32,1 36,15 l 17,61 c 4,15 -1,26 -23,32 -22,6 -32,-1 -36,-15 z m 219,-92 -30,2 12,160 96,-7 -2,-27 -66,5 z m 140,-2 -30,-1 -5,160 30,1 z m 78,56 c 3,-16 11,-23 32,-19 15,3 30,7 44,12 l 8,-25 C 977,21 960,16 947,13 906,5 884,17 878,49 l -12,67 c -6,31 10,51 48,58 17,3 37,4 54,3 l 13,-69 -28,-5 -9,48 c -8,0 -17,-1 -25,-3 -21,-4 -26,-14 -23,-30 l 11,-60 z m 187,164 30,11 6,-168 -40,-14 -101,135 30,11 21,-28 56,20 -1,35 z m 7,-141 -5,79 -42,-15 46,-64 z m 117,203 35,-54 54,34 14,-23 -54,-34 23,-36 58,37 14,-23 -84,-53 -86,135 26,16 z m 180,137 7,-69 c 17,6 31,1 44,-14 l 14,-16 c 18,-21 18,-42 -11,-66 l -50,-43 -104,122 23,20 35,-40 22,19 -7,64 28,24 z m 40,-117 -10,12 c -9,10 -17,11 -29,1 l -26,-22 35,-41 26,22 c 12,11 13,18 4,29 z m 118,56 -20,-23 -122,104 20,23 z"
   id="path90"
   inkscape:connector-curvature="0"
   style="fill:#008000;fill-rule:nonzero;fill-opacity:0.42105263" />
   <path
   class="fil1"
   d="m 223,1845 c 20,-25 23,-32 -4,-67 -17,-23 -17,-23 -6,-38 9,-11 14,-12 30,1 11,9 22,20 30,31 l 19,-18 c -10,-13 -22,-25 -33,-34 -32,-26 -51,-23 -69,0 -21,26 -22,36 3,67 19,23 18,25 7,38 -10,12 -15,13 -32,-1 -12,-10 -22,-21 -30,-34 l -19,15 c 5,11 19,28 33,39 37,30 54,23 73,0 z m 107,108 28,14 26,-166 -38,-19 -117,121 28,14 24,-25 53,27 -6,34 z m 24,-139 -14,78 -40,-20 z m 107,19 -55,151 56,21 c 37,14 57,-1 65,-22 l 26,-70 c 8,-22 2,-45 -35,-59 l -56,-21 z m 19,36 25,9 c 19,7 22,17 16,31 l -21,56 c -5,14 -13,20 -33,13 l -25,-9 37,-100 z m 218,69 c 3,-27 -10,-51 -55,-56 -45,-5 -63,16 -66,42 l -8,66 c -3,27 10,51 55,56 45,5 63,-16 66,-42 z m -91,-9 c 2,-15 10,-23 33,-21 23,3 29,13 27,28 l -7,63 c -2,15 -10,23 -33,21 -23,-3 -29,-13 -27,-28 z m 188,98 -44,-132 -32,1 54,159 45,-2 42,-162 -32,1 -34,135 z m 206,2 40,-8 -30,-158 -29,6 23,120 -83,-108 -40,8 30,158 29,-6 -23,-119 83,108 z m 48,-181 50,152 c 3,10 2,12 -10,34 l 24,14 c 18,-29 22,-39 16,-55 l -51,-155 z m 225,77 28,-14 -117,-121 -38,19 26,166 28,-14 -6,-34 53,-27 24,25 z m -96,-103 53,58 -40,20 -14,-78 z m 96,-87 -25,18 93,130 25,-18 z m 72,-51 -28,20 6,93 90,35 28,-20 -91,-35 -5,-94 z"
   id="path92"
   inkscape:connector-curvature="0"
   style="fill:#008000;fill-rule:nonzero;fill-opacity:0.42105263" />
  </g>
 </g>
</svg>