<?xml version="1.0" encoding="UTF-8"?>
<!DOCTYPE svg PUBLIC "-//W3C//DTD SVG 1.1//EN" "http://www.w3.org/Graphics/SVG/1.1/DTD/svg11.dtd">
<!-- Creator: CorelDRAW 2017 -->
<svg xmlns="http://www.w3.org/2000/svg" xml:space="preserve" width="27.8912mm" height="31.242mm" version="1.1" style="shape-rendering:geometricPrecision; text-rendering:geometricPrecision; image-rendering:optimizeQuality; fill-rule:evenodd; clip-rule:evenodd"
viewBox="0 0 1188 1331"
 xmlns:xlink="http://www.w3.org/1999/xlink">
 <defs>
  <style type="text/css">
   <![CDATA[
    .fil0 {fill:white}
   ]]>
  </style>
 </defs>
 <g id="Layer_x0020_1">
  <metadata id="CorelCorpID_0Corel-Layer"/>
  <path class="fil0" d="M1185 912c1,6 2,12 2,19 0,1 0,1 0,2 0,4 0,8 0,12 0,5 -1,9 -2,14 -7,38 -31,68 -63,87 0,0 -1,0 -1,1l-461 266c-44,25 -97,26 -138,-5 -3,-2 -5,-4 -7,-6 -5,-1 -9,-3 -14,-6l-405 -234c-5,-3 -10,-6 -14,-10 -48,-19 -80,-65 -81,-121l0 -532c0,-54 29,-102 81,-122 1,0 2,-1 3,-1 3,-3 7,-6 12,-8l404 -233c5,-3 10,-5 16,-7 40,-32 96,-36 144,-9 0,0 0,0 1,0l461 266c49,28 75,80 64,136 1,4 1,9 1,13l0 463c0,5 -1,11 -2,16zm-558 -787c0,-18 -15,-33 -33,-33 -18,0 -33,15 -33,33 0,18 15,33 33,33 18,0 33,-15 33,-33zm-467 269c0,-18 -15,-33 -33,-33 -18,0 -33,15 -33,33 0,18 15,33 33,33 18,0 33,-15 33,-33zm-65 539c0,-18 15,-33 33,-33 18,0 33,15 33,33 0,18 -15,33 -33,33 -18,0 -33,-15 -33,-33zm933 -539c0,-18 15,-33 33,-33 18,0 33,15 33,33 0,18 -15,33 -33,33 -18,0 -33,-15 -33,-33zm-466 808c0,-18 15,-33 33,-33 18,0 33,15 33,33 0,18 -15,33 -33,33 -18,0 -33,-15 -33,-33zm466 -269c0,-18 15,-33 33,-33 18,0 33,15 33,33 0,18 -15,33 -33,33 -18,0 -33,-15 -33,-33zm-829 -510l385 -222 -10 -6 -12 -7 0 0c-30,-17 -41,-44 -38,-69 1,-5 2,-9 3,-13 2,-5 4,-10 7,-15 0,0 1,-1 1,-1l-404 233c6,0 11,1 16,2 3,1 6,2 10,3 24,10 44,33 44,69l0 0 0 14 0 12zm128 -144c-11,-19 -4,-43 14,-54 19,-11 43,-4 54,14 11,19 4,43 -14,54 -19,11 -43,4 -54,-14zm171 -53c-19,11 -43,4 -54,-14 -11,-19 -4,-43 14,-54 19,-11 43,-4 54,14 11,19 4,43 -14,54zm-219 81c11,19 4,43 -14,54 -19,11 -43,4 -54,-14 -11,-19 -4,-43 14,-54 19,-11 43,-4 54,14zm263 -210c-14,26 -11,62 25,82l18 10 10 6 10 6 385 222 10 6 10 6 17 10c36,20 68,7 85,-16 5,-7 9,-15 10,-23 5,-23 -4,-49 -32,-66l-28 -16 -404 -233 -25 -14 -4 -2c-38,-21 -73,-4 -88,23zm24 58c-8,-8 -13,-18 -13,-30 0,-12 5,-23 13,-30 8,-8 19,-13 30,-13 12,0 23,5 30,13 8,8 13,18 13,30 0,12 -5,23 -13,30 -8,8 -18,13 -30,13 -12,0 -23,-5 -30,-13zm127 71c-19,-11 -25,-35 -14,-54 11,-19 35,-25 54,-14 19,11 25,35 14,54 -11,19 -35,25 -54,14zm117 67c-19,-11 -25,-35 -14,-54 11,-19 35,-25 54,-14 19,11 25,35 14,54 -11,19 -35,25 -54,14zm117 67c-19,-11 -25,-35 -14,-54 11,-19 35,-25 54,-14 19,11 25,35 14,54 -11,19 -35,25 -54,14zm106 64c-8,-8 -13,-18 -13,-30 0,-12 5,-23 13,-30 8,-8 18,-13 30,-13 12,0 23,5 30,13 8,8 13,18 13,30 0,12 -5,23 -13,30 -8,8 -18,13 -30,13 -12,0 -23,-5 -30,-13zm-842 5l0 -12 0 -19c-1,-41 -28,-63 -57,-65 -9,-1 -18,0 -27,4 -21,8 -38,28 -38,60l0 33 0 468 0 26 0 6c0,44 33,66 65,65 30,-1 58,-22 58,-63l0 -21 0 -12 0 -12 0 -444 0 -12zm-31 -5c-8,8 -18,13 -30,13 -12,0 -23,-5 -30,-13 -8,-8 -13,-18 -13,-30 0,-12 5,-23 13,-30 8,-8 18,-13 30,-13 12,0 23,5 30,13 8,8 13,18 13,30 0,12 -5,23 -13,30zm-30 65c22,0 39,18 39,39 0,22 -18,39 -39,39 -22,0 -39,-18 -39,-39 0,-22 18,-39 39,-39zm0 135c22,0 39,18 39,39 0,22 -18,39 -39,39 -22,0 -39,-18 -39,-39 0,-22 18,-39 39,-39zm0 135c22,0 39,18 39,39 0,22 -18,39 -39,39 -22,0 -39,-18 -39,-39 0,-22 18,-39 39,-39zm-30 144c8,-8 18,-13 30,-13 12,0 23,5 30,13 8,8 13,18 13,30 0,12 -5,23 -13,30 -8,8 -18,13 -30,13 -12,0 -23,-5 -30,-13 -8,-8 -13,-19 -13,-30 0,-12 5,-23 13,-30zm487 223l-385 -222 0 12 0 14 0 0c0,35 -18,58 -41,68 -4,2 -8,3 -13,4 -5,1 -11,2 -16,2 0,0 -1,0 -1,0l405 234c-3,-5 -5,-10 -7,-16 -1,-4 -2,-7 -2,-11 -3,-26 7,-54 38,-73l0 0 12 -7 10 -6zm-374 -145c11,-19 35,-25 54,-14 19,11 25,35 14,54 -11,19 -35,25 -54,14 -19,-11 -25,-35 -14,-54zm117 67c11,-19 35,-25 54,-14 19,11 25,35 14,54 -11,19 -35,25 -54,14 -19,-11 -25,-35 -14,-54zm117 67c11,-19 35,-25 54,-14 19,11 25,35 14,54 -11,19 -35,25 -54,14 -19,-11 -25,-35 -14,-54zm546 -212l-385 222 -11 6 -10 6 -17 10c-35,21 -40,56 -27,83 5,9 11,17 20,23 0,0 0,0 0,0 17,13 41,16 67,1l30 -17 402 -232 23 -14 1 0 5 -3c20,-12 30,-28 33,-44 0,-2 1,-4 1,-6 0,0 0,0 0,0 0,-2 0,-4 0,-6 0,0 0,0 0,0 0,0 0,0 0,0 0,-12 -4,-23 -10,-33 -16,-24 -48,-38 -84,-17l-18 10 -10 6 -10 6zm-365 268c8,8 13,18 13,30 0,12 -5,23 -13,30 -8,8 -18,13 -30,13 -12,0 -23,-5 -30,-13 -8,-8 -13,-18 -13,-30 0,-12 5,-23 13,-30 8,-8 18,-13 30,-13 12,0 23,5 30,13zm52 -17c-11,-19 -4,-43 14,-54 19,-11 43,-4 54,14 11,19 4,43 -14,54 -19,11 -43,4 -54,-14zm171 -53c-19,11 -43,4 -54,-14 -11,-19 -4,-43 14,-54 19,-11 43,-4 54,14 11,19 4,43 -14,54zm117 -67c-19,11 -43,4 -54,-14 -11,-19 -4,-43 14,-54 19,-11 43,-4 54,14 11,19 4,43 -14,54zm97 -59c-12,0 -23,-5 -30,-13 -8,-8 -13,-19 -13,-30 0,-12 5,-23 13,-30 8,-8 18,-13 30,-13 12,0 23,5 30,13 8,8 13,18 13,30 0,12 -5,23 -13,30 -8,8 -18,13 -30,13zm-61 -535l0 445 10 -6 13 -7 0 0c30,-18 59,-14 79,1 3,2 7,5 9,8 4,4 7,9 10,14l0 -463c-3,5 -6,9 -10,13 -2,2 -5,4 -7,6 -21,16 -50,20 -82,3l0 0 -12 -7 -10 -6zm22 357c0,-22 18,-39 39,-39 22,0 39,18 39,39 0,0 0,0 0,1 0,22 -18,39 -39,39 -22,0 -39,-17 -39,-39 0,0 0,0 0,0zm39 -95c-22,0 -39,-17 -39,-39 0,0 0,0 0,0 0,-22 18,-39 39,-39 22,0 39,18 39,39 0,0 0,0 0,1 0,22 -18,39 -39,39zm0 -135c-22,0 -39,-17 -39,-39 0,0 0,0 0,0 0,-22 18,-39 39,-39 22,0 39,18 39,39 0,0 0,0 0,1 0,22 -18,39 -39,39zm-530 121l125 0c22,0 39,18 39,39l0 0c0,22 -18,39 -39,39l-125 0c-22,0 -39,-18 -39,-39l0 0c0,-22 18,-39 39,-39zm22 93l82 0c22,0 39,18 39,39l0 0c0,22 -18,39 -39,39l-82 0c-22,0 -39,-18 -39,-39l0 0c0,-22 18,-39 39,-39zm41 93c22,0 39,18 39,39 0,22 -18,39 -39,39 -22,0 -39,-18 -39,-39 0,-22 18,-39 39,-39zm-36 -441l0 -28 -24 -14c-4,-2 -6,-8 -3,-12l0 0c2,-4 8,-6 12,-3l28 16c2,1 4,4 4,6 0,1 0,1 0,2l0 28c6,-1 12,-2 18,-2 6,0 12,1 18,2l0 -28c0,-1 0,-1 0,-2l0 0c0,-3 2,-5 4,-6l28 -16c4,-2 10,-1 12,3l0 0c2,4 1,10 -3,12l-24 14 0 28c0,1 0,1 0,2 26,13 44,40 44,71 0,44 -36,80 -80,80 -44,0 -80,-36 -80,-80 0,-31 18,-58 44,-71 0,-1 0,-1 0,-2zm-216 293c2,8 6,16 13,24 6,7 14,13 23,18 17,9 38,9 53,-6l87 -87 15 -15c7,-7 10,-16 10,-25 0,-9 -3,-18 -10,-25 -6,-6 -14,-9 -22,-9 -2,0 -4,0 -6,0 -8,1 -16,4 -23,9l-121 78c-16,10 -20,25 -17,39zm173 -87c-6,0 -11,-5 -11,-11 0,-6 5,-11 11,-11 6,0 11,5 11,11 0,6 -5,11 -11,11zm34 -5c0,11 -4,22 -12,30l-10 10 136 0 -10 -10c-8,-8 -12,-19 -12,-30 0,-11 4,-22 12,-30 4,-4 8,-6 12,-8l-139 0c4,2 8,4 12,8 8,8 12,19 12,30zm108 25l14 14 87 87c15,15 35,14 53,6 9,-4 16,-10 23,-18 6,-7 11,-15 13,-24 3,-14 -1,-28 -17,-39l-121 -78c-8,-5 -17,-9 -26,-9 -1,0 -2,0 -3,0 -8,0 -16,3 -22,9 -7,7 -10,16 -10,25 0,9 3,18 10,25zm16 -44c6,0 11,5 11,11 0,6 -5,11 -11,11 -6,0 -11,-5 -11,-11 0,-6 5,-11 11,-11z"/>
 </g>
</svg>
