<?xml version="1.0" encoding="UTF-8" standalone="no"?>
<!-- Creator: CorelDRAW 2017 -->

<svg
   xmlns:dc="http://purl.org/dc/elements/1.1/"
   xmlns:cc="http://creativecommons.org/ns#"
   xmlns:rdf="http://www.w3.org/1999/02/22-rdf-syntax-ns#"
   xmlns:svg="http://www.w3.org/2000/svg"
   xmlns="http://www.w3.org/2000/svg"
   xmlns:sodipodi="http://sodipodi.sourceforge.net/DTD/sodipodi-0.dtd"
   xmlns:inkscape="http://www.inkscape.org/namespaces/inkscape"
   xml:space="preserve"
   width="189.50142mm"
   height="250.02983mm"
   version="1.1"
   style="clip-rule:evenodd;fill-rule:evenodd;image-rendering:optimizeQuality;shape-rendering:geometricPrecision;text-rendering:geometricPrecision"
   viewBox="0 0 12448 16419.383"
   id="svg96"
   sodipodi:docname="Roboliga2020-logo-monitor.svg"
   inkscape:version="0.92.4 5da689c313, 2019-01-14"><metadata
   id="metadata100"><rdf:RDF><cc:Work
       rdf:about=""><dc:format>image/svg+xml</dc:format><dc:type
         rdf:resource="http://purl.org/dc/dcmitype/StillImage" /><dc:title></dc:title></cc:Work></rdf:RDF></metadata><sodipodi:namedview
   pagecolor="#ffffff"
   bordercolor="#666666"
   borderopacity="1"
   objecttolerance="10"
   gridtolerance="10"
   guidetolerance="10"
   inkscape:pageopacity="0"
   inkscape:pageshadow="2"
   inkscape:window-width="3840"
   inkscape:window-height="2053"
   id="namedview98"
   showgrid="false"
   inkscape:zoom="0.94703206"
   inkscape:cx="193.24327"
   inkscape:cy="438.78979"
   inkscape:window-x="0"
   inkscape:window-y="0"
   inkscape:window-maximized="1"
   inkscape:current-layer="svg96"
   fit-margin-top="0"
   fit-margin-left="0"
   fit-margin-right="0"
   fit-margin-bottom="0" />
 <defs
   id="defs85">
  <style
   type="text/css"
   id="style83">
   <![CDATA[
    .fil0 {fill:green}
    .fil1 {fill:green;fill-rule:nonzero}
   ]]>
  </style>
 <style
   id="style1003"
   type="text/css">
   <![CDATA[
    .fil0 {fill:white}
   ]]>
  </style></defs>
 
<g
   style="clip-rule:evenodd;fill-rule:evenodd;image-rendering:optimizeQuality;shape-rendering:geometricPrecision;text-rendering:geometricPrecision"
   id="g1021"
   transform="matrix(8.8527911,0,0,-8.8527911,908.46351,14056.249)"><g
     id="Layer_x0020_1-5">
  <metadata
   id="CorelCorpID_0Corel-Layer-7" />
  <path
   id="path1008"
   d="m 1185,912 c 1,6 2,12 2,19 0,1 0,1 0,2 0,4 0,8 0,12 0,5 -1,9 -2,14 -7,38 -31,68 -63,87 0,0 -1,0 -1,1 l -461,266 c -44,25 -97,26 -138,-5 -3,-2 -5,-4 -7,-6 -5,-1 -9,-3 -14,-6 L 96,1062 c -5,-3 -10,-6 -14,-10 C 34,1033 2,987 1,931 V 399 c 0,-54 29,-102 81,-122 1,0 2,-1 3,-1 3,-3 7,-6 12,-8 L 501,35 c 5,-3 10,-5 16,-7 40,-32 96,-36 144,-9 0,0 0,0 1,0 l 461,266 c 49,28 75,80 64,136 1,4 1,9 1,13 v 463 c 0,5 -1,11 -2,16 z M 627,125 c 0,-18 -15,-33 -33,-33 -18,0 -33,15 -33,33 0,18 15,33 33,33 18,0 33,-15 33,-33 z M 160,394 c 0,-18 -15,-33 -33,-33 -18,0 -33,15 -33,33 0,18 15,33 33,33 18,0 33,-15 33,-33 z M 95,933 c 0,-18 15,-33 33,-33 18,0 33,15 33,33 0,18 -15,33 -33,33 -18,0 -33,-15 -33,-33 z m 933,-539 c 0,-18 15,-33 33,-33 18,0 33,15 33,33 0,18 -15,33 -33,33 -18,0 -33,-15 -33,-33 z m -466,808 c 0,-18 15,-33 33,-33 18,0 33,15 33,33 0,18 -15,33 -33,33 -18,0 -33,-15 -33,-33 z m 466,-269 c 0,-18 15,-33 33,-33 18,0 33,15 33,33 0,18 -15,33 -33,33 -18,0 -33,-15 -33,-33 z M 199,423 584,201 l -10,-6 -12,-7 v 0 c -30,-17 -41,-44 -38,-69 1,-5 2,-9 3,-13 2,-5 4,-10 7,-15 0,0 1,-1 1,-1 L 131,323 c 6,0 11,1 16,2 3,1 6,2 10,3 24,10 44,33 44,69 v 0 14 12 z M 327,279 c -11,-19 -4,-43 14,-54 19,-11 43,-4 54,14 11,19 4,43 -14,54 -19,11 -43,4 -54,-14 z m 171,-53 c -19,11 -43,4 -54,-14 -11,-19 -4,-43 14,-54 19,-11 43,-4 54,14 11,19 4,43 -14,54 z m -219,81 c 11,19 4,43 -14,54 -19,11 -43,4 -54,-14 -11,-19 -4,-43 14,-54 19,-11 43,-4 54,14 z M 542,97 c -14,26 -11,62 25,82 l 18,10 10,6 10,6 385,222 10,6 10,6 17,10 c 36,20 68,7 85,-16 5,-7 9,-15 10,-23 5,-23 -4,-49 -32,-66 L 1062,324 658,91 633,77 629,75 C 591,54 556,71 541,98 Z m 24,58 c -8,-8 -13,-18 -13,-30 0,-12 5,-23 13,-30 8,-8 19,-13 30,-13 12,0 23,5 30,13 8,8 13,18 13,30 0,12 -5,23 -13,30 -8,8 -18,13 -30,13 -12,0 -23,-5 -30,-13 z m 127,71 c -19,-11 -25,-35 -14,-54 11,-19 35,-25 54,-14 19,11 25,35 14,54 -11,19 -35,25 -54,14 z m 117,67 c -19,-11 -25,-35 -14,-54 11,-19 35,-25 54,-14 19,11 25,35 14,54 -11,19 -35,25 -54,14 z m 117,67 c -19,-11 -25,-35 -14,-54 11,-19 35,-25 54,-14 19,11 25,35 14,54 -11,19 -35,25 -54,14 z m 106,64 c -8,-8 -13,-18 -13,-30 0,-12 5,-23 13,-30 8,-8 18,-13 30,-13 12,0 23,5 30,13 8,8 13,18 13,30 0,12 -5,23 -13,30 -8,8 -18,13 -30,13 -12,0 -23,-5 -30,-13 z m -842,5 v -12 -19 c -1,-41 -28,-63 -57,-65 -9,-1 -18,0 -27,4 -21,8 -38,28 -38,60 v 33 468 26 6 c 0,44 33,66 65,65 30,-1 58,-22 58,-63 V 911 899 887 443 431 Z m -31,-5 c -8,8 -18,13 -30,13 -12,0 -23,-5 -30,-13 -8,-8 -13,-18 -13,-30 0,-12 5,-23 13,-30 8,-8 18,-13 30,-13 12,0 23,5 30,13 8,8 13,18 13,30 0,12 -5,23 -13,30 z m -30,65 c 22,0 39,18 39,39 0,22 -18,39 -39,39 -22,0 -39,-18 -39,-39 0,-22 18,-39 39,-39 z m 0,135 c 22,0 39,18 39,39 0,22 -18,39 -39,39 -22,0 -39,-18 -39,-39 0,-22 18,-39 39,-39 z m 0,135 c 22,0 39,18 39,39 0,22 -18,39 -39,39 -22,0 -39,-18 -39,-39 0,-22 18,-39 39,-39 z m -30,144 c 8,-8 18,-13 30,-13 12,0 23,5 30,13 8,8 13,18 13,30 0,12 -5,23 -13,30 -8,8 -18,13 -30,13 -12,0 -23,-5 -30,-13 -8,-8 -13,-19 -13,-30 0,-12 5,-23 13,-30 z M 587,1126 202,904 v 12 14 0 c 0,35 -18,58 -41,68 -4,2 -8,3 -13,4 -5,1 -11,2 -16,2 0,0 -1,0 -1,0 l 405,234 c -3,-5 -5,-10 -7,-16 -1,-4 -2,-7 -2,-11 -3,-26 7,-54 38,-73 v 0 l 12,-7 10,-6 z M 213,981 c 11,-19 35,-25 54,-14 19,11 25,35 14,54 -11,19 -35,25 -54,14 -19,-11 -25,-35 -14,-54 z m 117,67 c 11,-19 35,-25 54,-14 19,11 25,35 14,54 -11,19 -35,25 -54,14 -19,-11 -25,-35 -14,-54 z m 117,67 c 11,-19 35,-25 54,-14 19,11 25,35 14,54 -11,19 -35,25 -54,14 -19,-11 -25,-35 -14,-54 z m 546,-212 -385,222 -11,6 -10,6 -17,10 c -35,21 -40,56 -27,83 5,9 11,17 20,23 0,0 0,0 0,0 17,13 41,16 67,1 l 30,-17 402,-232 23,-14 h 1 l 5,-3 c 20,-12 30,-28 33,-44 0,-2 1,-4 1,-6 0,0 0,0 0,0 0,-2 0,-4 0,-6 0,0 0,0 0,0 0,0 0,0 0,0 0,-12 -4,-23 -10,-33 -16,-24 -48,-38 -84,-17 l -18,10 -10,6 -10,6 z m -365,268 c 8,8 13,18 13,30 0,12 -5,23 -13,30 -8,8 -18,13 -30,13 -12,0 -23,-5 -30,-13 -8,-8 -13,-18 -13,-30 0,-12 5,-23 13,-30 8,-8 18,-13 30,-13 12,0 23,5 30,13 z m 52,-17 c -11,-19 -4,-43 14,-54 19,-11 43,-4 54,14 11,19 4,43 -14,54 -19,11 -43,4 -54,-14 z m 171,-53 c -19,11 -43,4 -54,-14 -11,-19 -4,-43 14,-54 19,-11 43,-4 54,14 11,19 4,43 -14,54 z m 117,-67 c -19,11 -43,4 -54,-14 -11,-19 -4,-43 14,-54 19,-11 43,-4 54,14 11,19 4,43 -14,54 z m 97,-59 c -12,0 -23,-5 -30,-13 -8,-8 -13,-19 -13,-30 0,-12 5,-23 13,-30 8,-8 18,-13 30,-13 12,0 23,5 30,13 8,8 13,18 13,30 0,12 -5,23 -13,30 -8,8 -18,13 -30,13 z m -61,-535 v 445 l 10,-6 13,-7 v 0 c 30,-18 59,-14 79,1 3,2 7,5 9,8 4,4 7,9 10,14 V 432 c -3,5 -6,9 -10,13 -2,2 -5,4 -7,6 -21,16 -50,20 -82,3 v 0 l -12,-7 -10,-6 z m 22,357 c 0,-22 18,-39 39,-39 22,0 39,18 39,39 0,0 0,0 0,1 0,22 -18,39 -39,39 -22,0 -39,-17 -39,-39 0,0 0,0 0,0 z m 39,-95 c -22,0 -39,-17 -39,-39 0,0 0,0 0,0 0,-22 18,-39 39,-39 22,0 39,18 39,39 0,0 0,0 0,1 0,22 -18,39 -39,39 z m 0,-135 c -22,0 -39,-17 -39,-39 0,0 0,0 0,0 0,-22 18,-39 39,-39 22,0 39,18 39,39 0,0 0,0 0,1 0,22 -18,39 -39,39 z M 535,688 h 125 c 22,0 39,18 39,39 v 0 c 0,22 -18,39 -39,39 H 535 c -22,0 -39,-18 -39,-39 v 0 c 0,-22 18,-39 39,-39 z m 22,93 h 82 c 22,0 39,18 39,39 v 0 c 0,22 -18,39 -39,39 h -82 c -22,0 -39,-18 -39,-39 v 0 c 0,-22 18,-39 39,-39 z m 41,93 c 22,0 39,18 39,39 0,22 -18,39 -39,39 -22,0 -39,-18 -39,-39 0,-22 18,-39 39,-39 z M 562,433 v -28 l -24,-14 c -4,-2 -6,-8 -3,-12 v 0 c 2,-4 8,-6 12,-3 l 28,16 c 2,1 4,4 4,6 0,1 0,1 0,2 v 28 c 6,-1 12,-2 18,-2 6,0 12,1 18,2 v -28 c 0,-1 0,-1 0,-2 v 0 c 0,-3 2,-5 4,-6 l 28,-16 c 4,-2 10,-1 12,3 v 0 c 2,4 1,10 -3,12 l -24,14 v 28 c 0,1 0,1 0,2 26,13 44,40 44,71 0,44 -36,80 -80,80 -44,0 -80,-36 -80,-80 0,-31 18,-58 44,-71 0,-1 0,-1 0,-2 z M 346,726 c 2,8 6,16 13,24 6,7 14,13 23,18 17,9 38,9 53,-6 l 87,-87 15,-15 c 7,-7 10,-16 10,-25 0,-9 -3,-18 -10,-25 -6,-6 -14,-9 -22,-9 -2,0 -4,0 -6,0 -8,1 -16,4 -23,9 l -121,78 c -16,10 -20,25 -17,39 z m 173,-87 c -6,0 -11,-5 -11,-11 0,-6 5,-11 11,-11 6,0 11,5 11,11 0,6 -5,11 -11,11 z m 34,-5 c 0,11 -4,22 -12,30 l -10,10 h 136 l -10,-10 c -8,-8 -12,-19 -12,-30 0,-11 4,-22 12,-30 4,-4 8,-6 12,-8 H 530 c 4,2 8,4 12,8 8,8 12,19 12,30 z m 108,25 14,14 87,87 c 15,15 35,14 53,6 9,-4 16,-10 23,-18 6,-7 11,-15 13,-24 3,-14 -1,-28 -17,-39 L 713,607 c -8,-5 -17,-9 -26,-9 -1,0 -2,0 -3,0 -8,0 -16,3 -22,9 -7,7 -10,16 -10,25 0,9 3,18 10,25 z m 16,-44 c 6,0 11,5 11,11 0,6 -5,11 -11,11 -6,0 -11,-5 -11,-11 0,-6 5,-11 11,-11 z"
   class="fil0"
   inkscape:connector-curvature="0"
   style="fill:#ffffff" />
 </g></g></svg>